<svg width="16" height="15" viewBox="0 0 16 15" fill="none" xmlns="http://www.w3.org/2000/svg">
<path d="M15.7693 11.7049L9.4542 1.58261C9.3014 1.33508 9.08794 1.13066 8.83403 0.98871C8.58012 0.846765 8.29418 0.771996 8.00329 0.771487C7.71239 0.770978 7.42619 0.844747 7.17179 0.985803C6.91738 1.12686 6.70321 1.33053 6.54954 1.57753L0.224327 11.7167C0.0772588 11.9747 -5.72934e-05 12.2665 3.18542e-08 12.5634C5.73571e-05 12.8603 0.0774861 13.1521 0.224654 13.4099C0.371822 13.6678 0.583649 13.8829 0.839256 14.0339C1.09486 14.185 1.38542 14.2669 1.6823 14.2714H14.3181C14.616 14.2667 14.9076 14.1841 15.1638 14.0319C15.42 13.8797 15.632 13.6631 15.7786 13.4037C15.9253 13.1443 16.0016 12.8511 16 12.5531C15.9983 12.2551 15.9188 11.9627 15.7693 11.7049Z" fill="#FFD54F"/>
<path d="M7.348 9.09135L7.15764 6.24591C7.12043 5.67339 6.92505 4.74805 7.36232 4.28288C7.69509 3.92505 8.48303 3.86351 8.72206 4.35945C8.92531 4.94223 8.97026 5.56852 8.8523 6.17435L8.59753 9.10352C8.58658 9.37921 8.52622 9.65069 8.41934 9.90505C8.37726 9.98736 8.31347 10.0566 8.23487 10.1052C8.15628 10.1539 8.06587 10.1801 7.97343 10.1811C7.881 10.182 7.79007 10.1577 7.71048 10.1107C7.63089 10.0637 7.56568 9.99577 7.52191 9.91435C7.42119 9.65082 7.3625 9.3731 7.348 9.09135ZM8.00712 13.001C7.78144 12.9997 7.56473 12.9125 7.40107 12.7571C7.23741 12.6017 7.1391 12.3898 7.12616 12.1645C7.11321 11.9392 7.18659 11.7174 7.33137 11.5443C7.47615 11.3712 7.68145 11.2597 7.9055 11.2326C8.02586 11.218 8.14794 11.2283 8.26419 11.2627C8.38043 11.2972 8.48839 11.3551 8.5814 11.4328C8.67441 11.5106 8.75049 11.6066 8.80495 11.715C8.85941 11.8233 8.8911 11.9416 8.89805 12.0627C8.90501 12.1837 8.88709 12.3049 8.84539 12.4187C8.8037 12.5326 8.73912 12.6367 8.65563 12.7246C8.57215 12.8125 8.47153 12.8824 8.36 12.9299C8.24846 12.9775 8.12836 13.0016 8.00712 13.001Z" fill="#272B2E"/>
</svg>
